<?xml version="1.0" standalone="yes"?>
<svg xmlns="http://www.w3.org/2000/svg" width="298" height="297">
<path style="fill:#fefefe; stroke:none;" d="M0 0L0 297L298 297L298 0L0 0z"/>
<path style="fill:#373737; stroke:none;" d="M132 2C134.332 2.98453 136.457 2.98126 139 3C136.668 2.01547 134.543 2.01874 132 2z"/>
<path style="fill:#53ba4d; stroke:none;" d="M139 2C140.248 2.68481 140.548 2.74878 142 3C140.752 2.31516 140.452 2.25122 139 2M156 2C157.506 2.68304 158.315 2.8259 160 3C158.494 2.31696 157.685 2.1741 156 2z"/>
<path style="fill:#373737; stroke:none;" d="M160 2C162.052 2.87424 163.747 2.95279 166 3C163.948 2.12576 162.253 2.04721 160 2M125 3C126.248 3.68481 126.548 3.74878 128 4C126.752 3.31519 126.452 3.25122 125 3z"/>
<path style="fill:#53ba4d; stroke:none;" d="M128.667 3.33334C128.222 3.77786 129.278 3.72217 129.333 3.66666C129.778 3.22238 128.722 3.27768 128.667 3.33334M168.667 3.33334C168.222 3.77783 169.278 3.7222 169.333 3.66666C169.778 3.22238 168.722 3.27768 168.667 3.33334z"/>
<path style="fill:#373737; stroke:none;" d="M170 3C171.248 3.68478 171.548 3.74881 173 4C171.752 3.31516 171.452 3.25122 170 3M120.667 4.33334C120.222 4.77768 121.278 4.72223 121.333 4.66666C121.778 4.22223 120.722 4.27777 120.667 4.33334z"/>
<path style="fill:#53ba4d; stroke:none;" d="M122 4C123.248 4.68481 123.548 4.74878 125 5C123.752 4.31519 123.452 4.25122 122 4M173 4C174.248 4.68481 174.548 4.74878 176 5C174.752 4.31516 174.452 4.25122 173 4z"/>
<path style="fill:#373737; stroke:none;" d="M176.667 4.33334C176.222 4.77783 177.278 4.72217 177.333 4.66666C177.778 4.22235 176.722 4.27771 176.667 4.33334M115.667 5.33334C115.222 5.77768 116.278 5.7222 116.333 5.66666C116.778 5.22223 115.722 5.27777 115.667 5.33334z"/>
<path style="fill:#53ba4d; stroke:none;" d="M117 5L118 6L117 5M180 5L181 6L180 5z"/>
<path style="fill:#373737; stroke:none;" d="M181.667 5.33334C181.222 5.7778 182.278 5.7222 182.333 5.66666C182.778 5.22238 181.722 5.27774 181.667 5.33334M111.667 6.33334C111.222 6.77771 112.278 6.7222 112.333 6.66666C112.778 6.2222 111.722 6.27777 111.667 6.33334z"/>
<path style="fill:#53ba4d; stroke:none;" d="M113 6L114 7L113 6M183.667 6.33334C183.222 6.7778 184.278 6.72217 184.333 6.66666C184.778 6.22238 183.722 6.27771 183.667 6.33334z"/>
<path style="fill:#373737; stroke:none;" d="M185.667 6.33334C185.222 6.7778 186.278 6.72217 186.333 6.66666C186.778 6.22238 185.722 6.27771 185.667 6.33334M107.667 7.33334C107.222 7.77768 108.278 7.72223 108.333 7.66666C108.778 7.22217 107.722 7.27783 107.667 7.33334z"/>
<path style="fill:#53ba4d; stroke:none;" d="M109 7L110 8L109 7M187.667 7.33334C187.222 7.77783 188.278 7.72217 188.333 7.66666C188.778 7.22238 187.722 7.27771 187.667 7.33334z"/>
<path style="fill:#373737; stroke:none;" d="M189.667 7.33334C189.222 7.77783 190.278 7.72214 190.333 7.66666C190.778 7.22235 189.722 7.27774 189.667 7.33334M104.667 8.33334C104.222 8.77768 105.278 8.72223 105.333 8.66666C105.778 8.22217 104.722 8.2778 104.667 8.33334z"/>
<path style="fill:#53ba4d; stroke:none;" d="M106 8L107 9L106 8M191 8L192 9L191 8z"/>
<path style="fill:#373737; stroke:none;" d="M192.667 8.33334C192.222 8.77786 193.278 8.72211 193.333 8.66666C193.778 8.22235 192.722 8.27771 192.667 8.33334M101.667 9.33334C101.222 9.77768 102.278 9.7222 102.333 9.66666C102.778 9.2222 101.722 9.2778 101.667 9.33334z"/>
<path style="fill:#53ba4d; stroke:none;" d="M103 9L104 10L103 9M194 9L195 10L194 9z"/>
<path style="fill:#373737; stroke:none;" d="M195.667 9.33334C195.222 9.77783 196.278 9.72214 196.333 9.66666C196.778 9.22235 195.722 9.27771 195.667 9.33334M98.6667 10.3333C98.2223 10.7777 99.2778 10.7222 99.3333 10.6667C99.7778 10.2222 98.7223 10.2777 98.6667 10.3333z"/>
<path style="fill:#53ba4d; stroke:none;" d="M100 10L101 11L100 10M197 10L198 11L197 10z"/>
<path style="fill:#373737; stroke:none;" d="M198.667 10.3333C198.222 10.7779 199.278 10.7221 199.333 10.6667C199.778 10.2224 198.722 10.2777 198.667 10.3333M96 11L97 12L96 11z"/>
<path style="fill:#53ba4d; stroke:none;" d="M97 11L98 12L97 11M199.667 11.3333C199.222 11.7779 200.278 11.7221 200.333 11.6667C200.778 11.2223 199.722 11.2777 199.667 11.3333z"/>
<path style="fill:#373737; stroke:none;" d="M201 11L202 12L201 11M93.6667 12.3333C93.2223 12.7776 94.2777 12.7223 94.3333 12.6667C94.7779 12.2222 93.7222 12.2778 93.6667 12.3333M203.667 12.3333C203.222 12.7779 204.278 12.7222 204.333 12.6667C204.778 12.2224 203.722 12.2777 203.667 12.3333M91 13L92 14L91 13z"/>
<path style="fill:#53ba4d; stroke:none;" d="M92.6667 13.3333C92.2222 13.7777 93.2778 13.7222 93.3333 13.6667C93.7778 13.2222 92.7222 13.2778 92.6667 13.3333M204.667 13.3333C204.222 13.7779 205.278 13.7221 205.333 13.6667C205.778 13.2224 204.722 13.2777 204.667 13.3333z"/>
<path style="fill:#373737; stroke:none;" d="M206 13L207 14L206 13M88.6667 14.3333C88.2223 14.7777 89.2778 14.7222 89.3333 14.6667C89.7778 14.2222 88.7222 14.2778 88.6667 14.3333z"/>
<path style="fill:#53ba4d; stroke:none;" d="M90 14L91 15L90 14M207 14L208 15L207 14z"/>
<path style="fill:#373737; stroke:none;" d="M208 14C212.277 17.5437 217.883 19.8696 223 22C219.076 18.0339 213.332 15.536 208 14M75 21C79.4795 21.0477 83.8885 17.7118 88 16C83.5813 15.264 78.7542 18.8088 75 21z"/>
<path style="fill:#53ba4d; stroke:none;" d="M209 15L210 16L209 15M86 16L87 17L86 16M211 16L212 17L211 16M84 17L85 18L84 17M213 17L214 18L213 17M82 18L83 19L82 18M215 18L216 19L215 18M80 19L81 20L80 19M217 19L218 20L217 19M78 20L79 21L78 20M219 20L220 21L219 20M76 21L77 22L76 21M221 21L222 22L221 21z"/>
<path style="fill:#373737; stroke:none;" d="M73 22L70 24C71.8063 24.0532 72.2619 23.7987 74 23L73 22z"/>
<path style="fill:#53ba4d; stroke:none;" d="M74 22L75 23L74 22M112 67C136.091 70.5578 160.185 90.799 161.91 116C162.692 127.418 158.057 138.286 155 149C159.837 146.304 164.123 143.068 167.907 138.996C170.42 136.292 172.528 133.342 174.11 130C186.796 103.197 159.813 82.0699 155.095 57C153.654 49.3459 154.407 40.0178 157.996 33C160.004 29.0744 163.165 26.0081 165 22C142.512 27.1405 114.344 40.3238 112 67M223 22C223.545 23.6352 223.365 23.4549 225 24C224.455 22.3649 224.635 22.545 223 22z"/>
<path style="fill:#373737; stroke:none;" d="M224 22L225 23L224 22z"/>
<path style="fill:#53ba4d; stroke:none;" d="M73 23L74 24L73 23z"/>
<path style="fill:#373737; stroke:none;" d="M225 23C226.139 24.0154 226.612 24.3087 228 25C226.777 23.8048 226.58 23.6836 225 23z"/>
<path style="fill:#53ba4d; stroke:none;" d="M71 24L72 25L71 24M226 24L227 25L226 24z"/>
<path style="fill:#373737; stroke:none;" d="M67 27L70 26C68.2337 25.5991 68.4426 25.7108 67 27M228 25C229.139 26.0154 229.612 26.3087 231 27C229.777 25.8048 229.58 25.6836 228 25z"/>
<path style="fill:#53ba4d; stroke:none;" d="M68 26L69 27L68 26M229 26L230 27L229 26z"/>
<path style="fill:#373737; stroke:none;" d="M64 29L67 28C65.2337 27.5991 65.4426 27.7108 64 29M231 27C232.139 28.0154 232.612 28.3087 234 29C232.777 27.8048 232.58 27.6836 231 27z"/>
<path style="fill:#53ba4d; stroke:none;" d="M65 28L66 29L65 28M232 28L233 29L232 28z"/>
<path style="fill:#373737; stroke:none;" d="M60 32L64 30C61.8552 29.8369 61.5148 30.37 60 32M234 29C235.341 30.2741 236.403 31.0407 238 32C236.55 30.3924 235.949 29.9357 234 29z"/>
<path style="fill:#53ba4d; stroke:none;" d="M62 30L63 31L62 30M235 30L236 31L235 30M61 31L62 32L61 31M236 31L237 32L236 31z"/>
<path style="fill:#373737; stroke:none;" d="M56 35L60 33C57.8552 32.8369 57.5148 33.37 56 35M238 32C239.341 33.2741 240.403 34.0407 242 35C240.55 33.3924 239.949 32.9357 238 32z"/>
<path style="fill:#53ba4d; stroke:none;" d="M58 33L59 34L58 33M239 33L240 34L239 33M57 34L58 35L57 34M240 34L241 35L240 34z"/>
<path style="fill:#373737; stroke:none;" d="M55 35L56 36L55 35M242 35L243 36L242 35M46 44L55 37C50.896 36.9132 48.2288 40.8469 46 44M243 36C245.759 38.9825 248.676 41.6666 252 44C249.497 40.458 246.946 37.8409 243 36z"/>
<path style="fill:#53ba4d; stroke:none;" d="M53 37L54 38L53 37M244 37L245 38L244 37M52 38L53 39L52 38M67 38C65.9911 44.857 63.1757 51.2572 61.6651 58C55.9727 83.4099 50.9187 112.713 63.2731 137C72.6499 155.434 94.3473 163.504 114 163.985C121.502 164.169 128.57 162.315 136 161.934C149.996 161.218 163.878 164.579 178 163.961C196.854 163.135 214.651 156.731 232 150C226.946 148.505 219.952 151.811 215 153.279C205.274 156.162 195.089 157.869 185 158.83C143.942 162.74 97.3666 145.292 79 106C85.7158 113.291 91.6579 121.468 100 127L100 115L93 115C102.528 105.668 115.211 97.8292 123 87C133.238 96.4304 144.138 105.165 154 115L147 115L147 152C151.763 149.248 153.165 143.034 154.717 138C158.711 125.041 159.244 110.19 152.485 98C139.659 74.8636 111.57 74.0658 91 61.5363C84.7473 57.7277 78.9863 52.6446 74.3287 47C71.8004 43.9359 70.3477 40.186 67 38M245 38L246 39L245 38M51 39L52 40L51 39M246 39L247 40L246 39M50 40L51 41L50 40M247 40L248 41L247 40M49 41L50 42L49 41M248 41L249 42L248 41M48 42L49 43L48 42M249 42L250 43L249 42M47 43L48 44L47 43M250 43L251 44L250 43z"/>
<path style="fill:#373737; stroke:none;" d="M45 44L46 45L45 44M252 44L253 45L252 44M44 45C40.8724 48.138 37.8806 50.9662 36 55C39.0149 52.2122 43.0241 49.0285 44 45M253 45L261 55C261.094 50.5779 256.38 47.3831 253 45z"/>
<path style="fill:#53ba4d; stroke:none;" d="M44 46L45 47L44 46M253 46L254 47L253 46M43 47L44 48L43 47M254 47L255 48L254 47M42 48L43 49L42 48M255 48L256 49L255 48M41 49L42 50L41 49M256 49L257 50L256 49M40 50L41 51L40 50M257 50L258 51L257 50M39 51L40 52L39 51M258 51L259 52L258 51M38 52L39 53L38 52M259 52L260 53L259 52M37 53L38 54L37 53M260 53L261 54L260 53z"/>
<path style="fill:#373737; stroke:none;" d="M35 55C26.6817 64.614 16.2792 78.2139 14 91C18.8825 83.7416 22.1247 75.3642 27.0039 68C29.643 64.0167 34.1503 59.7075 35 55M262 55C269.286 66.6999 279.105 77.4791 283 91C284.061 87.1297 281.513 83.4348 279.742 80C275.297 71.3842 269.772 60.962 262 55z"/>
<path style="fill:#53ba4d; stroke:none;" d="M35 56L36 57L35 56M262 56L263 57L262 56M34 57L35 58L34 57M263 57L264 58L263 57M33 58L34 59L33 58M264 58L265 59L264 58M32 60L33 61L32 60M265 60L266 61L265 60M31 61L32 62L31 61M266 61L267 62L266 61M30 62L31 63L30 62M267 62L268 63L267 62M29 64L30 65L29 64M268 64L269 65L268 64M28 65L29 66L28 65M269 65L270 66L269 65M27 67L28 68L27 67M270 67L271 68L270 67M26 68L27 69L26 68M271 68L272 69L271 68M25 70L26 71L25 70M272 70L273 71L272 70M24 71L25 72L24 71M273 71L274 72L273 71M23 73L24 74L23 73M274 73L275 74L274 73M22 75L23 76L22 75M275 75L276 76L275 75M21 76L22 77L21 76M276 76L277 77L276 76M20 78L21 79L20 78M277 78L278 79L277 78M19 80L20 81L19 80M278 80L279 81L278 80M18 82L19 83L18 82M279 82L280 83L279 82M17 84L18 85L17 84M280 84L281 85L280 84M16 86L17 87L16 86M281 86L282 87L281 86M15.3333 88.6667C15.2778 88.7222 15.2222 89.7778 15.6667 89.3333C15.7223 89.2777 15.7778 88.2222 15.3333 88.6667M282.333 88.6667C282.278 88.7223 282.222 89.7777 282.667 89.3333C282.722 89.2779 282.778 88.2222 282.333 88.6667z"/>
<path style="fill:#373737; stroke:none;" d="M13 91L12 94C13.2892 92.5574 13.4009 92.7663 13 91M284 91C284.684 92.58 284.805 92.7773 286 94C285.309 92.6116 285.015 92.1393 284 91z"/>
<path style="fill:#53ba4d; stroke:none;" d="M13 93L14 94L13 93M284 93L285 94L284 93M12.3333 94.6667C12.2778 94.7222 12.2222 95.7778 12.6667 95.3333C12.7223 95.2777 12.7778 94.2223 12.3333 94.6667M285.333 94.6667C285.278 94.7223 285.222 95.7777 285.667 95.3333C285.722 95.2778 285.778 94.2222 285.333 94.6667z"/>
<path style="fill:#373737; stroke:none;" d="M11 96L10 100C11.1456 98.3596 11.393 97.924 11 96M286 96L287 100C287.393 98.0761 287.146 97.6404 286 96z"/>
<path style="fill:#53ba4d; stroke:none;" d="M11.3333 98.6667C11.2778 98.7222 11.2222 99.7778 11.6667 99.3333C11.7223 99.2777 11.7778 98.2222 11.3333 98.6667M286.333 98.6667C286.278 98.7223 286.222 99.7777 286.667 99.3333C286.722 99.2779 286.778 98.2222 286.333 98.6667M10 100L9 106C10.3054 103.819 10.7355 102.433 10 100M121.144 101.072C115.264 104.169 119.88 113.317 125.852 109.957C131.329 106.875 126.569 98.2149 121.144 101.072M287 100L288 106C288.736 103.567 288.305 102.181 287 100z"/>
<path style="fill:#373737; stroke:none;" d="M9.33333 101.667C9.2778 101.722 9.22221 102.778 9.66667 102.333C9.72226 102.278 9.77778 101.222 9.33333 101.667z"/>
<path style="fill:#fefefe; stroke:none;" d="M76 101C76.547 102.875 77.11 104.255 78 106C78.2416 103.671 77.5544 102.782 76 101z"/>
<path style="fill:#373737; stroke:none;" d="M288.333 101.667C288.278 101.722 288.222 102.778 288.667 102.333C288.722 102.278 288.778 101.222 288.333 101.667M8 104L7 110C8.30545 107.819 8.73551 106.433 8 104M289 104L290 110C290.736 107.567 290.305 106.181 289 104z"/>
<path style="fill:#53ba4d; stroke:none;" d="M8 107L8 110C8.69611 108.446 8.6961 108.554 8 107M289 107L289 110C289.696 108.446 289.696 108.554 289 107M7 110L7 113C7.69612 111.446 7.6961 111.554 7 110M290 110L290 113C290.696 111.446 290.696 111.554 290 110z"/>
<path style="fill:#373737; stroke:none;" d="M6 111L6 114C6.69612 112.446 6.6961 112.554 6 111M291 111L291 114C291.696 112.446 291.696 112.554 291 111z"/>
<path style="fill:#53ba4d; stroke:none;" d="M6 114L6 117C6.69612 115.446 6.6961 115.554 6 114M291 114L291 117C291.696 115.446 291.696 115.554 291 114z"/>
<path style="fill:#373737; stroke:none;" d="M5 115L5 118C5.69612 116.446 5.69611 116.554 5 115M292 115L292 118C292.696 116.446 292.696 116.554 292 115z"/>
<path style="fill:#53ba4d; stroke:none;" d="M5 118L5 121C5.69612 119.446 5.69611 119.554 5 118M292 118L292 121C292.696 119.446 292.696 119.554 292 118z"/>
<path style="fill:#373737; stroke:none;" d="M4 120L3 130C4.527 126.823 5.29938 123.329 4 120M293 120L294 130C295.299 126.671 294.527 123.177 293 120z"/>
<path style="fill:#53ba4d; stroke:none;" d="M116 123C116 127.152 114.973 132.93 116.603 136.816C118.578 141.522 125.382 144.167 130 145L130 123L116 123M4 125L4 128C4.69612 126.446 4.6961 126.554 4 125M293 125L293 128C293.696 126.446 293.696 126.554 293 125M3 130L3 135C3.8299 132.97 3.8299 132.03 3 130M294 130L294 135C294.83 132.97 294.83 132.03 294 130z"/>
<path style="fill:#373737; stroke:none;" d="M2 132L2 142C3.34572 138.793 3.34572 135.207 2 132M295 132L295 142C296.346 138.793 296.346 135.207 295 132z"/>
<path style="fill:#53ba4d; stroke:none;" d="M2 142L2 155C3.5909 151.209 3.59089 145.791 2 142M295 142L295 155C296.591 151.209 296.591 145.791 295 142z"/>
<path style="fill:#373737; stroke:none;" d="M2 155L2 166C3.43088 162.59 3.43088 158.41 2 155M295 155L295 166C296.431 162.59 296.431 158.41 295 155z"/>
<path style="fill:#53ba4d; stroke:none;" d="M3 162L3 167C3.82989 164.97 3.82989 164.03 3 162M294 162L294 167C294.83 164.97 294.83 164.03 294 162z"/>
<path style="fill:#373737; stroke:none;" d="M3 167L4 178C5.3585 174.52 4.50999 170.364 3 167M294 167L293 178C294.649 174.57 295.46 170.579 294 167z"/>
<path style="fill:#53ba4d; stroke:none;" d="M4 170L4 173C4.69611 171.446 4.6961 171.554 4 170M293 170L293 173C293.696 171.446 293.696 171.554 293 170M5 176L5 179C5.69611 177.446 5.6961 177.554 5 176M292 176L292 179C292.696 177.446 292.696 177.554 292 176z"/>
<path style="fill:#373737; stroke:none;" d="M5 179C6.51221 197.514 16.4983 216.837 26.6705 232C35.6869 245.44 47.043 257.402 60 267.105C127.081 317.338 226.696 300.275 272.656 230C282.229 215.363 291.554 196.703 293 179C288.489 187.423 286.96 198.076 283.127 207C275.974 223.654 265.26 238.835 252.576 251.715C196.404 308.751 103.013 308.443 46.2855 252.576C33.1545 239.644 22.1584 223.962 14.8727 207C11.0395 198.076 9.51123 187.423 5 179z"/>
<path style="fill:#53ba4d; stroke:none;" d="M6 180L6 183C6.69611 181.446 6.6961 181.554 6 180M291 180L291 183C291.696 181.446 291.696 181.554 291 180M24 215C24.3433 225.485 39.2512 225.726 43.142 216.907C48.1891 205.465 36.049 202.639 31.662 194.961C29.7758 191.659 32.2462 187.811 36.0031 187.732C38.3064 187.684 40.8687 189.245 43 190C42.1569 179.087 26.7724 182.053 24.4375 191.001C21.8142 201.053 33.8842 203.471 36.8634 211.003C38.3463 214.752 34.7448 218.449 30.9977 218.343C28.4042 218.269 26.0988 216.314 24 215M174 221C172.842 214.76 173.211 209.246 174 203C165.168 203.294 167 211.101 167 218C162.965 218.162 158.721 219.162 155.005 217.058C143.968 210.808 145.268 192.554 157 187.859C162.104 185.816 166.525 188.923 171 191C170.574 178.014 152.405 182.635 146.188 189.105C137.469 198.18 139.18 215.778 151 221.427C157.801 224.678 167.139 223.175 174 221M7 184L7 187C7.69611 185.446 7.6961 185.554 7 184M215 194C211.557 194.01 208.045 193.812 205.015 195.742C198.057 200.175 195.293 211.853 200.009 218.891C203.542 224.164 210.788 224.236 214 219C214.986 220.479 215 220.203 215 222L220 222L220 184C215.006 185.836 215.017 189.125 215 194M290 184L290 187C290.696 185.446 290.696 185.554 290 184M8.33333 188.667C8.27778 188.722 8.22223 189.778 8.66667 189.333C8.72223 189.278 8.77777 188.222 8.33333 188.667M289.333 188.667C289.278 188.722 289.222 189.778 289.667 189.333C289.722 189.278 289.778 188.222 289.333 188.667M114 189C111.828 191.855 109.51 194.437 107 197C105.721 191.03 99.4379 195.149 98 199L97 195L91 195L91 222L97 222C97 216.767 94.7052 204.345 99.3179 200.781C101.948 198.749 106.818 199.339 110 199C110 204.837 108.122 214.688 111.179 219.852C114.753 225.887 121.848 222.525 123 217C113.531 216.732 116 205.947 116 199L122 199L122 195L116 195L116 189L114 189M9 191L9 194C9.69611 192.446 9.6961 192.554 9 191M288 191L288 194C288.696 192.446 288.696 192.554 288 191M10 194L10 197C10.6961 195.446 10.6961 195.554 10 194M56 199L55 195L49 195L49 222L55 222C55 216.506 54.27 210.445 55.1481 205.019C55.5444 202.57 57.0674 199.904 59.9606 200.176C62.4836 200.413 63.5042 202.823 63.8519 205.005C64.7182 210.443 64 216.496 64 222L70 222C70 216.431 68.8563 209.444 70.3179 204.055C71.0677 201.29 73.889 198.938 76.8526 200.217C82.4737 202.643 80 217.021 80 222L86 222C86 215.18 87.4038 206.596 85.5664 200.005C84.2857 195.411 79.6887 192.942 75.1713 194.738C72.9155 195.635 70.9665 197.613 69 199C66.7817 191.977 59.1706 193.569 56 199M187 199L186 195L181 195L181 222L186 222C186 213.513 182.635 198.825 195 200C195.644 197.894 195.906 196.205 196 194C191.526 194.146 189.232 195.022 187 199M257 198C256.271 194.597 254.194 195.013 251 195L251 222L257 222C257 216.494 256.284 210.445 257.148 205.005C257.493 202.834 258.522 200.312 261.039 200.037C263.961 199.717 265.462 202.591 265.852 205.015C266.724 210.446 266 216.502 266 222L272 222C272 215.18 273.404 206.596 271.566 200.005C270.199 195.098 265.641 193.148 261.045 194.984C259.472 195.612 258.255 196.939 257 198M287 194L287 197C287.696 195.446 287.696 195.554 287 194M223 195C225.773 200.967 233.638 211.243 232.444 218C231.667 222.396 227.389 226.373 225 230C240.124 229.821 244.17 206.617 249 195L241 195C240.515 200.553 238.249 205.602 237 211C234.325 205.982 231.847 200.651 231 195L223 195M11.3333 197.667C11.2778 197.722 11.2222 198.778 11.6667 198.333C11.7222 198.278 11.7778 197.222 11.3333 197.667M286.333 197.667C286.278 197.722 286.222 198.778 286.667 198.333C286.722 198.278 286.778 197.222 286.333 197.667z"/>
<path style="fill:#fefefe; stroke:none;" d="M215 218L215 199C212.517 198.548 209.583 197.669 207.228 199.042C202.859 201.591 202.695 211.983 205.742 215.566C208.017 218.241 211.829 217.971 215 218z"/>
<path style="fill:#53ba4d; stroke:none;" d="M13 203L14 204L13 203M284 203L285 204L284 203M14 206L15 207L14 206M283 206L284 207L283 206M15.3333 207.667C15.2778 207.722 15.2222 208.778 15.6667 208.333C15.7222 208.278 15.7778 207.222 15.3333 207.667M282.333 207.667C282.278 207.722 282.222 208.778 282.667 208.333C282.722 208.278 282.778 207.222 282.333 207.667M16 210L17 211L16 210M281 210L282 211L281 210M17 212L18 213L17 212M280 212L281 213L280 212M18 214L19 215L18 214M279 214L280 215L279 214M19 216L20 217L19 216M278 216L279 217L278 216M20 218L21 219L20 218M277 218L278 219L277 218M21 220L22 221L21 220M276 220L277 221L276 220M22 222L23 223L22 222M275 222L276 223L275 222M23 223L24 224L23 223M274 223L275 224L274 223M24 225L25 226L24 225M273 225L274 226L273 225M26 228L27 229L26 228M271 228L272 229L271 228M28 231L29 232L28 231M269 231L270 232L269 231M30 234L31 235L30 234M267 234L268 235L267 234M33 238L34 239L33 238M264 238L265 239L264 238M34 239L35 240L34 239M263 239L264 240L263 239M36 242L37 243L36 242M261 242L262 243L261 242M37 243L38 244L37 243M260 243L261 244L260 243M38 244L39 245L38 244M259 244L260 245L259 244M39 245L40 246L39 245M258 245L259 246L258 245M45 252L46 253L45 252M252 252L253 253L252 252M52 258L53 259L52 258M245 258L246 259L245 258M53 259L54 260L53 259M244 259L245 260L244 259M54 260L55 261L54 260M243 260L244 261L243 260M55 261L56 262L55 261M242 261L243 262L242 261M58 263L59 264L58 263M239 263L240 264L239 263M59 264L60 265L59 264M238 264L239 265L238 264M63 267L64 268L63 267M234 267L235 268L234 267M66 269L67 270L66 269M231 269L232 270L231 269M69 271L70 272L69 271M228 271L229 272L228 271M72 273L73 274L72 273M225 273L226 274L225 273M74 274L75 275L74 274M223 274L224 275L223 274M77 276L78 277L77 276M220 276L221 277L220 276M79 277L80 278L79 277M218 277L219 278L218 277M81 278L82 279L81 278M216 278L217 279L216 278M83 279L84 280L83 279M214 279L215 280L214 279M85 280L86 281L85 280M212 280L213 281L212 280M87 281L88 282L87 281M210 281L211 282L210 281M89 282L90 283L89 282M208 282L209 283L208 282M92 283L93 284L92 283M205 283L206 284L205 283M94 284L95 285L94 284M203 284L204 285L203 284M97 285L98 286L97 285M200 285L201 286L200 285M99 286L100 287L99 286M198 286L199 287L198 286M102 287L103 288L102 287M195 287L196 288L195 287M105.667 288.333C105.222 288.778 106.278 288.722 106.333 288.667C106.778 288.222 105.722 288.278 105.667 288.333M191.667 288.333C191.222 288.778 192.278 288.722 192.333 288.667C192.778 288.222 191.722 288.278 191.667 288.333M108.667 289.333C108.222 289.778 109.278 289.722 109.333 289.667C109.778 289.222 108.722 289.278 108.667 289.333M188.667 289.333C188.222 289.778 189.278 289.722 189.333 289.667C189.778 289.222 188.722 289.278 188.667 289.333M112.667 290.333C112.222 290.778 113.278 290.722 113.333 290.667C113.778 290.222 112.722 290.278 112.667 290.333M184.667 290.333C184.222 290.778 185.278 290.722 185.333 290.667C185.778 290.222 184.722 290.278 184.667 290.333M116.667 291.333C116.222 291.778 117.278 291.722 117.333 291.667C117.778 291.222 116.722 291.278 116.667 291.333M180.667 291.333C180.222 291.778 181.278 291.722 181.333 291.667C181.778 291.222 180.722 291.278 180.667 291.333M121 292L122 293L121 292M176 292L177 293L176 292M136 294C137.248 294.685 137.548 294.749 139 295C137.752 294.315 137.452 294.251 136 294M160 294C161.248 294.685 161.548 294.749 163 295C161.752 294.315 161.452 294.251 160 294z"/>
</svg>
